<svg xmlns="http://www.w3.org/2000/svg">
  <g id='card'>
    <svg width="32" height="32" viewBox="0 0 32 32" fill="none" xmlns="http://www.w3.org/2000/svg">
    <path d="M29.3333 10.0667C29.3333 10.9467 28.6133 11.6667 27.7333 11.6667H4.26666C3.38666 11.6667 2.66666 10.9467 2.66666 10.0667V10.0533C2.66666 6.99999 5.13332 4.53333 8.18666 4.53333H23.8C26.8533 4.53333 29.3333 7.01333 29.3333 10.0667Z" fill="currentColor"/>
    <path d="M2.66666 15.2667V21.9467C2.66666 25 5.13332 27.4667 8.18666 27.4667H23.8C26.8533 27.4667 29.3333 24.9867 29.3333 21.9333V15.2667C29.3333 14.3867 28.6133 13.6667 27.7333 13.6667H4.26666C3.38666 13.6667 2.66666 14.3867 2.66666 15.2667ZM10.6667 23H7.99999C7.45332 23 6.99999 22.5467 6.99999 22C6.99999 21.4533 7.45332 21 7.99999 21H10.6667C11.2133 21 11.6667 21.4533 11.6667 22C11.6667 22.5467 11.2133 23 10.6667 23ZM19.3333 23H14C13.4533 23 13 22.5467 13 22C13 21.4533 13.4533 21 14 21H19.3333C19.88 21 20.3333 21.4533 20.3333 22C20.3333 22.5467 19.88 23 19.3333 23Z" fill="currentColor"/>
    </svg>
  </g>
  <g id='bank'>
   <svg width="38" height="38" viewBox="0 0 38 38" fill="none" xmlns="http://www.w3.org/2000/svg">
<path d="M23.584 22.1667V17.4167H28.334V14.25L34.6673 19.7917L28.334 25.3333V22.1667H23.584ZM22.0006 12.1917V14.25H3.00064V12.1917L12.5006 6.33333L22.0006 12.1917ZM10.9173 15.8333H14.084V23.75H10.9173V15.8333ZM4.58397 15.8333H7.75064V23.75H4.58397V15.8333ZM20.4173 15.8333V19.7917L17.2506 22.6417V15.8333H20.4173ZM14.2423 25.3333L13.2923 26.125L15.984 28.5H3.00064V25.3333H14.2423ZM26.7506 23.75V28.5H22.0006V31.6667L15.6673 26.125L22.0006 20.5833V23.75H26.7506Z" fill="currentColor"/>
</svg>

  </g>
  <g id='trf'>
   <svg width="32" height="32" viewBox="0 0 32 32" fill="none" xmlns="http://www.w3.org/2000/svg">
<path d="M29.3327 25.3333V29.3333H2.66602V25.3333C2.66602 24.6 3.26602 24 3.99935 24H27.9993C28.7327 24 29.3327 24.6 29.3327 25.3333Z" fill="currentColor" stroke="currentColor" stroke-width="1.5" stroke-miterlimit="10" stroke-linecap="round" stroke-linejoin="round"/>
<path d="M9.33268 14.666H6.66602V23.9993H9.33268V14.666Z" fill="currentColor"/>
<path d="M14.6667 14.666H12V23.9993H14.6667V14.666Z" fill="currentColor"/>
<path d="M20.0007 14.666H17.334V23.9993H20.0007V14.666Z" fill="currentColor"/>
<path d="M25.3327 14.666H22.666V23.9993H25.3327V14.666Z" fill="currentColor"/>
<path d="M30.6673 30.334H1.33398C0.787318 30.334 0.333984 29.8807 0.333984 29.334C0.333984 28.7873 0.787318 28.334 1.33398 28.334H30.6673C31.214 28.334 31.6673 28.7873 31.6673 29.334C31.6673 29.8807 31.214 30.334 30.6673 30.334Z" fill="currentColor"/>
<path d="M28.4927 7.66711L16.4927 2.86711C16.226 2.76044 15.7727 2.76044 15.506 2.86711L3.50602 7.66711C3.03935 7.85378 2.66602 8.40044 2.66602 8.90711V13.3338C2.66602 14.0671 3.26602 14.6671 3.99935 14.6671H27.9993C28.7327 14.6671 29.3327 14.0671 29.3327 13.3338V8.90711C29.3327 8.40044 28.9593 7.85378 28.4927 7.66711ZM15.9993 11.3338C14.8927 11.3338 13.9993 10.4404 13.9993 9.33378C13.9993 8.22711 14.8927 7.33378 15.9993 7.33378C17.106 7.33378 17.9993 8.22711 17.9993 9.33378C17.9993 10.4404 17.106 11.3338 15.9993 11.3338Z" fill="currentColor"/>
</svg>

  </g>

  <g id='mcard'>
    <svg width="34" height="24" viewBox="0 0 34 24" fill="none" xmlns="http://www.w3.org/2000/svg">
<rect x="0.5" y="0.5" width="33" height="23" rx="3.5" fill="white"/>
<rect x="0.5" y="0.5" width="33" height="23" rx="3.5" stroke="#F2F4F7"/>
<path fill-rule="evenodd" clip-rule="evenodd" d="M17.179 16.8294C15.9949 17.8275 14.459 18.43 12.7807 18.43C9.03582 18.43 6 15.4303 6 11.73C6 8.02966 9.03582 5.02997 12.7807 5.02997C14.459 5.02997 15.9949 5.63247 17.179 6.63051C18.363 5.63247 19.8989 5.02997 21.5773 5.02997C25.3221 5.02997 28.358 8.02966 28.358 11.73C28.358 15.4303 25.3221 18.43 21.5773 18.43C19.8989 18.43 18.363 17.8275 17.179 16.8294Z" fill="#ED0006"/>
<path fill-rule="evenodd" clip-rule="evenodd" d="M17.179 16.8294C18.6369 15.6005 19.5614 13.7719 19.5614 11.73C19.5614 9.68801 18.6369 7.85941 17.179 6.63051C18.363 5.63247 19.8989 5.02997 21.5773 5.02997C25.3221 5.02997 28.3579 8.02966 28.3579 11.73C28.3579 15.4303 25.3221 18.43 21.5773 18.43C19.8989 18.43 18.363 17.8275 17.179 16.8294Z" fill="#F9A000"/>
<path fill-rule="evenodd" clip-rule="evenodd" d="M17.179 16.8294C18.6369 15.6005 19.5614 13.7719 19.5614 11.73C19.5614 9.68804 18.6369 7.85945 17.179 6.63054C15.7211 7.85945 14.7966 9.68804 14.7966 11.73C14.7966 13.7719 15.7211 15.6005 17.179 16.8294Z" fill="#FF5E00"/>
</svg>

  </g>
</svg>